@startuml
set namespaceSeparator ::

class "pawfection::homepage.dart::Homepage" {
  +Widget build()
}

"flutter::src::widgets::framework.dart::StatelessWidget" <|-- "pawfection::homepage.dart::Homepage"

class "pawfection::repository::storage_repository.dart::StorageRepository" {
  -FirebaseStorage _storage
  +dynamic uploadImageToStorage()
}

"pawfection::repository::storage_repository.dart::StorageRepository" o-- "firebase_storage::firebase_storage.dart::FirebaseStorage"

class "pawfection::repository::task_repository.dart::TaskRepository" {
  +CollectionReference<Object?> taskCollection
  +Stream<QuerySnapshot<Object?>> tasks
  +void updateTaskRepo()
  +void deleteTaskRepo()
  +dynamic addTaskRepo()
  +dynamic fetchAllTasks()
}

"pawfection::repository::task_repository.dart::TaskRepository" o-- "cloud_firestore::cloud_firestore.dart::CollectionReference<Object>"
"pawfection::repository::task_repository.dart::TaskRepository" o-- "dart::async::Stream<QuerySnapshot<Object>>"

class "pawfection::repository::user_repository.dart::UserRepository" {
  +CollectionReference<Object?> userCollection
  +Stream<QuerySnapshot<Object?>> users
  +dynamic addUserRepo()
  +void addUserRepoWithRepoId()
  +void updateUserRepo()
  +void updateUserRepoReferenceId()
  +void deleteUserRepo()
  +dynamic fetchAllUsers()
}

"pawfection::repository::user_repository.dart::UserRepository" o-- "cloud_firestore::cloud_firestore.dart::CollectionReference<Object>"
"pawfection::repository::user_repository.dart::UserRepository" o-- "dart::async::Stream<QuerySnapshot<Object>>"

class "pawfection::repository::pet_repository.dart::PetRepository" {
  +CollectionReference<Object?> petCollection
  +Stream<QuerySnapshot<Object?>> pets
  +dynamic addPetRepo()
  +void updatePetRepo()
  +void deletePetRepo()
  +dynamic fetchAllPets()
}

"pawfection::repository::pet_repository.dart::PetRepository" o-- "cloud_firestore::cloud_firestore.dart::CollectionReference<Object>"
"pawfection::repository::pet_repository.dart::PetRepository" o-- "dart::async::Stream<QuerySnapshot<Object>>"

class "pawfection::login_view.dart::LoginView" {
  +State<LoginView> createState()
}

"flutter::src::widgets::framework.dart::StatefulWidget" <|-- "pawfection::login_view.dart::LoginView"

class "pawfection::login_view.dart::_LoginViewState" {
  -FirebaseAuth _auth
  +UserRepository userRepository
  +UserService userService
  +String accesscode
  +bool signup
  +Duration loginTime
  -dynamic _authUser()
  -dynamic _signupUser()
  -dynamic _recoverPassword()
  +void initState()
  +Widget build()
}

"pawfection::login_view.dart::_LoginViewState" o-- "firebase_auth::firebase_auth.dart::FirebaseAuth"
"pawfection::login_view.dart::_LoginViewState" o-- "pawfection::repository::user_repository.dart::UserRepository"
"pawfection::login_view.dart::_LoginViewState" o-- "pawfection::service::user_service.dart::UserService"
"flutter::src::widgets::framework.dart::State" <|-- "pawfection::login_view.dart::_LoginViewState"

class "pawfection::firebase_options.dart::DefaultFirebaseOptions" {
  {static} +FirebaseOptions web
  {static} +FirebaseOptions android
  {static} +FirebaseOptions ios
  {static} +FirebaseOptions macos
  {static} +FirebaseOptions currentPlatform
}

"pawfection::firebase_options.dart::DefaultFirebaseOptions" o-- "firebase_core_platform_interface::firebase_core_platform_interface.dart::FirebaseOptions"

class "pawfection::models::user.dart::User" {
  +String referenceId
  +String username
  +String email
  +String role
  +List<Timestamp?> availabledates
  +List<String?> preferences
  +List<String?> experiences
  +String profilepicture
  +String contactnumber
  +int taskcount
  +String bio
  +int hashCode
  +bool ==()
  +String toString()
}

class "pawfection::models::pet.dart::Pet" {
  +String? referenceId
  +String name
  +String? breed
  +String? description
  +String? thingstonote
  +String profilepicture
  +String toString()
}

class "pawfection::models::task.dart::Task" {
  +String? referenceId
  +String name
  +String createdby
  +String? assignedto
  +String description
  +String category
  +String? categoryothers
  +String status
  +List<String?> resources
  +String contactperson
  +String contactpersonnumber
  +String? feedback
  +List<Timestamp?> deadline
  +String? pet
  +List<String?> requests
  +String toString()
}

class "pawfection::main.dart::MyApp" {
  +Widget build()
}

"flutter::src::widgets::framework.dart::StatelessWidget" <|-- "pawfection::main.dart::MyApp"

class "pawfection::manager_view.dart::ManagerView" {
  +int tab
  +State<ManagerView> createState()
}

"flutter::src::widgets::framework.dart::StatefulWidget" <|-- "pawfection::manager_view.dart::ManagerView"

class "pawfection::manager_view.dart::_ManagerViewState" {
  -PageController _pageController
  +int maxCount
  +List<Widget> bottomBarPages
  +void dispose()
  +void initState()
  +Widget build()
}

"pawfection::manager_view.dart::_ManagerViewState" o-- "flutter::src::widgets::page_view.dart::PageController"
"flutter::src::widgets::framework.dart::State" <|-- "pawfection::manager_view.dart::_ManagerViewState"

class "pawfection::manager::m_create_task_screen.dart::MCreateTaskScreen" {
  +String imagePath
  +State<MCreateTaskScreen> createState()
}

"flutter::src::widgets::framework.dart::StatefulWidget" <|-- "pawfection::manager::m_create_task_screen.dart::MCreateTaskScreen"

class "pawfection::manager::m_create_task_screen.dart::_MCreateTaskScreenState" {
  +GlobalKey<FormState> formKey
  +StorageRepository storageRepository
  +TaskService taskService
  +PetService petService
  +UserService userService
  -dynamic _form
  +dynamic alertmessage
  +List<File?> resources
  +String others
  +bool showTextField
  -FirebaseAuth _auth
  +List<String> categories
  +Widget build()
  +Widget buildPetList()
  +Widget buildVolunteerList()
  -List<Widget> _buildForm()
  -List<Widget> _buildCupertinoForm()
  -void _handleResourcesAdded()
  +dynamic pickVideo()
}

"pawfection::manager::m_create_task_screen.dart::_MCreateTaskScreenState" o-- "flutter::src::widgets::framework.dart::GlobalKey<FormState>"
"pawfection::manager::m_create_task_screen.dart::_MCreateTaskScreenState" o-- "pawfection::repository::storage_repository.dart::StorageRepository"
"pawfection::manager::m_create_task_screen.dart::_MCreateTaskScreenState" o-- "pawfection::service::task_service.dart::TaskService"
"pawfection::manager::m_create_task_screen.dart::_MCreateTaskScreenState" o-- "pawfection::service::pet_service.dart::PetService"
"pawfection::manager::m_create_task_screen.dart::_MCreateTaskScreenState" o-- "pawfection::service::user_service.dart::UserService"
"pawfection::manager::m_create_task_screen.dart::_MCreateTaskScreenState" o-- "firebase_auth::firebase_auth.dart::FirebaseAuth"
"flutter::src::widgets::framework.dart::State" <|-- "pawfection::manager::m_create_task_screen.dart::_MCreateTaskScreenState"

class "pawfection::manager::m_volunteerlist_screen.dart::MVolunteerListScreen" {
  +FirebaseFirestore firebaseFirestore
  +State<MVolunteerListScreen> createState()
}

"pawfection::manager::m_volunteerlist_screen.dart::MVolunteerListScreen" o-- "cloud_firestore::cloud_firestore.dart::FirebaseFirestore"
"flutter::src::widgets::framework.dart::StatefulWidget" <|-- "pawfection::manager::m_volunteerlist_screen.dart::MVolunteerListScreen"

class "pawfection::manager::m_volunteerlist_screen.dart::_MVolunteerListScreenState" {
  +void initState()
  +Widget build()
}

"flutter::src::widgets::framework.dart::State" <|-- "pawfection::manager::m_volunteerlist_screen.dart::_MVolunteerListScreenState"

class "pawfection::manager::m_volunteerlist_screen.dart::UserItem" {
  +User user
  +FirebaseFirestore firebaseFirestore
  +Widget build()
}

"pawfection::manager::m_volunteerlist_screen.dart::UserItem" o-- "pawfection::models::user.dart::User"
"pawfection::manager::m_volunteerlist_screen.dart::UserItem" o-- "cloud_firestore::cloud_firestore.dart::FirebaseFirestore"
"flutter::src::widgets::framework.dart::StatelessWidget" <|-- "pawfection::manager::m_volunteerlist_screen.dart::UserItem"

class "pawfection::manager::m_volunteerlist_screen.dart::EmptyView" {
  +Widget build()
}

"flutter::src::widgets::framework.dart::StatelessWidget" <|-- "pawfection::manager::m_volunteerlist_screen.dart::EmptyView"

class "pawfection::manager::m_update_task_screen.dart::MUpdateTaskScreen" {
  +Task task
  +State<MUpdateTaskScreen> createState()
}

"pawfection::manager::m_update_task_screen.dart::MUpdateTaskScreen" o-- "pawfection::models::task.dart::Task"
"flutter::src::widgets::framework.dart::StatefulWidget" <|-- "pawfection::manager::m_update_task_screen.dart::MUpdateTaskScreen"

class "pawfection::manager::m_update_task_screen.dart::_MUpdateTaskScreenState" {
  +GlobalKey<FormState> formKey
  +TaskService taskService
  +StorageRepository storageRepository
  +PetService petService
  +UserService userService
  +List<String?> resources
  -dynamic _form
  +dynamic alertmessage
  +String others
  +bool showTextField
  +List<String> categories
  +void initState()
  +Widget buildPetList()
  +Widget buildVolunteerList()
  -void _showDialog()
  +Widget build()
  -List<Widget> _buildForm()
  -List<Widget> _buildCupertinoForm()
  +dynamic pickVideo()
  +File convertImageToFile()
}

"pawfection::manager::m_update_task_screen.dart::_MUpdateTaskScreenState" o-- "flutter::src::widgets::framework.dart::GlobalKey<FormState>"
"pawfection::manager::m_update_task_screen.dart::_MUpdateTaskScreenState" o-- "pawfection::service::task_service.dart::TaskService"
"pawfection::manager::m_update_task_screen.dart::_MUpdateTaskScreenState" o-- "pawfection::repository::storage_repository.dart::StorageRepository"
"pawfection::manager::m_update_task_screen.dart::_MUpdateTaskScreenState" o-- "pawfection::service::pet_service.dart::PetService"
"pawfection::manager::m_update_task_screen.dart::_MUpdateTaskScreenState" o-- "pawfection::service::user_service.dart::UserService"
"flutter::src::widgets::framework.dart::State" <|-- "pawfection::manager::m_update_task_screen.dart::_MUpdateTaskScreenState"

class "pawfection::manager::m_auto_assign_dialog.dart::AutoAssignDialog" {
  +BuildContext parentContext
  +_AutoAssignDialogState createState()
}

"pawfection::manager::m_auto_assign_dialog.dart::AutoAssignDialog" o-- "flutter::src::widgets::framework.dart::BuildContext"
"flutter::src::widgets::framework.dart::StatefulWidget" <|-- "pawfection::manager::m_auto_assign_dialog.dart::AutoAssignDialog"

class "pawfection::manager::m_auto_assign_dialog.dart::_AutoAssignDialogState" {
  +FunctionService functionService
  +UserService userService
  +TaskService taskService
  +PetService petService
  +List<Task> tasks
  +Map<String, User?> selectedUserVolunteers
  +Widget build()
}

"pawfection::manager::m_auto_assign_dialog.dart::_AutoAssignDialogState" o-- "pawfection::service::functions_service.dart::FunctionService"
"pawfection::manager::m_auto_assign_dialog.dart::_AutoAssignDialogState" o-- "pawfection::service::user_service.dart::UserService"
"pawfection::manager::m_auto_assign_dialog.dart::_AutoAssignDialogState" o-- "pawfection::service::task_service.dart::TaskService"
"pawfection::manager::m_auto_assign_dialog.dart::_AutoAssignDialogState" o-- "pawfection::service::pet_service.dart::PetService"
"flutter::src::widgets::framework.dart::State" <|-- "pawfection::manager::m_auto_assign_dialog.dart::_AutoAssignDialogState"

class "pawfection::manager::m_dashboard_screen.dart::MDashboardScreen" {
  +FirebaseFirestore firebaseFirestore
  +State<MDashboardScreen> createState()
}

"pawfection::manager::m_dashboard_screen.dart::MDashboardScreen" o-- "cloud_firestore::cloud_firestore.dart::FirebaseFirestore"
"flutter::src::widgets::framework.dart::StatefulWidget" <|-- "pawfection::manager::m_dashboard_screen.dart::MDashboardScreen"

class "pawfection::manager::m_dashboard_screen.dart::_MDashboardScreenState" {
  +void initState()
  +Widget build()
}

"flutter::src::widgets::framework.dart::State" <|-- "pawfection::manager::m_dashboard_screen.dart::_MDashboardScreenState"

class "pawfection::manager::m_dashboard_screen.dart::TaskItem" {
  +Task task
  +PetService petService
  +Icon showCategoryIcon()
  +Widget build()
}

"pawfection::manager::m_dashboard_screen.dart::TaskItem" o-- "pawfection::models::task.dart::Task"
"pawfection::manager::m_dashboard_screen.dart::TaskItem" o-- "pawfection::service::pet_service.dart::PetService"
"flutter::src::widgets::framework.dart::StatelessWidget" <|-- "pawfection::manager::m_dashboard_screen.dart::TaskItem"

class "pawfection::manager::m_dashboard_screen.dart::EmptyView" {
  +Widget build()
}

"flutter::src::widgets::framework.dart::StatelessWidget" <|-- "pawfection::manager::m_dashboard_screen.dart::EmptyView"

class "pawfection::manager::m_pet_screen.dart::MPetScreen" {
  +FirebaseFirestore firebaseFirestore
  +State<MPetScreen> createState()
}

"pawfection::manager::m_pet_screen.dart::MPetScreen" o-- "cloud_firestore::cloud_firestore.dart::FirebaseFirestore"
"flutter::src::widgets::framework.dart::StatefulWidget" <|-- "pawfection::manager::m_pet_screen.dart::MPetScreen"

class "pawfection::manager::m_pet_screen.dart::_MPetScreenState" {
  +void initState()
  +Widget build()
}

"flutter::src::widgets::framework.dart::State" <|-- "pawfection::manager::m_pet_screen.dart::_MPetScreenState"

class "pawfection::manager::m_pet_screen.dart::PetItem" {
  +Pet pet
  +FirebaseFirestore firebaseFirestore
  +Widget build()
}

"pawfection::manager::m_pet_screen.dart::PetItem" o-- "pawfection::models::pet.dart::Pet"
"pawfection::manager::m_pet_screen.dart::PetItem" o-- "cloud_firestore::cloud_firestore.dart::FirebaseFirestore"
"flutter::src::widgets::framework.dart::StatelessWidget" <|-- "pawfection::manager::m_pet_screen.dart::PetItem"

class "pawfection::manager::m_pet_screen.dart::EmptyView" {
  +Widget build()
}

"flutter::src::widgets::framework.dart::StatelessWidget" <|-- "pawfection::manager::m_pet_screen.dart::EmptyView"

class "pawfection::manager::m_create_pet_screen.dart::MCreatePetScreen" {
  +String imageURL
  +State<MCreatePetScreen> createState()
}

"flutter::src::widgets::framework.dart::StatefulWidget" <|-- "pawfection::manager::m_create_pet_screen.dart::MCreatePetScreen"

class "pawfection::manager::m_create_pet_screen.dart::_MCreatePetScreenState" {
  +GlobalKey<FormState> formKey
  +PetService petService
  -dynamic _form
  +dynamic alertmessage
  +Widget build()
  -List<Widget> _buildForm()
  -List<Widget> _buildCupertinoForm()
}

"pawfection::manager::m_create_pet_screen.dart::_MCreatePetScreenState" o-- "flutter::src::widgets::framework.dart::GlobalKey<FormState>"
"pawfection::manager::m_create_pet_screen.dart::_MCreatePetScreenState" o-- "pawfection::service::pet_service.dart::PetService"
"flutter::src::widgets::framework.dart::State" <|-- "pawfection::manager::m_create_pet_screen.dart::_MCreatePetScreenState"

class "pawfection::manager::m_update_pet_screen.dart::MUpdatePetScreen" {
  +String imageURL
  +Pet pet
  +State<MUpdatePetScreen> createState()
}

"pawfection::manager::m_update_pet_screen.dart::MUpdatePetScreen" o-- "pawfection::models::pet.dart::Pet"
"flutter::src::widgets::framework.dart::StatefulWidget" <|-- "pawfection::manager::m_update_pet_screen.dart::MUpdatePetScreen"

class "pawfection::manager::m_update_pet_screen.dart::_MUpdatePetScreenState" {
  +GlobalKey<FormState> formKey
  +PetService petService
  -dynamic _form
  +dynamic alertmessage
  +Widget build()
  -List<Widget> _buildForm()
  -List<Widget> _buildCupertinoForm()
}

"pawfection::manager::m_update_pet_screen.dart::_MUpdatePetScreenState" o-- "flutter::src::widgets::framework.dart::GlobalKey<FormState>"
"pawfection::manager::m_update_pet_screen.dart::_MUpdatePetScreenState" o-- "pawfection::service::pet_service.dart::PetService"
"flutter::src::widgets::framework.dart::State" <|-- "pawfection::manager::m_update_pet_screen.dart::_MUpdatePetScreenState"

class "pawfection::manager::m_create_user_screen.dart::MCreateUserScreen" {
  +String imagePath
  +State<MCreateUserScreen> createState()
}

"flutter::src::widgets::framework.dart::StatefulWidget" <|-- "pawfection::manager::m_create_user_screen.dart::MCreateUserScreen"

class "pawfection::manager::m_create_user_screen.dart::_MCreateUserScreenState" {
  +GlobalKey<FormState> formKey
  +UserService userService
  -dynamic _form
  +dynamic alertmessage
  +List<dynamic> experiences
  +List<dynamic> preferences
  -void _showDialog()
  +dynamic sendEmail()
  +Widget build()
  -List<Widget> _buildForm()
  -List<Widget> _buildCupertinoForm()
}

"pawfection::manager::m_create_user_screen.dart::_MCreateUserScreenState" o-- "flutter::src::widgets::framework.dart::GlobalKey<FormState>"
"pawfection::manager::m_create_user_screen.dart::_MCreateUserScreenState" o-- "pawfection::service::user_service.dart::UserService"
"flutter::src::widgets::framework.dart::State" <|-- "pawfection::manager::m_create_user_screen.dart::_MCreateUserScreenState"

class "pawfection::voluteer_view.dart::VolunteerView" {
  +int tab
  +State<VolunteerView> createState()
}

"flutter::src::widgets::framework.dart::StatefulWidget" <|-- "pawfection::voluteer_view.dart::VolunteerView"

class "pawfection::voluteer_view.dart::_VolunteerViewState" {
  -PageController _pageController
  +List<Widget> bottomBarPages
  +int maxCount
  +void dispose()
  +void initState()
  +Widget build()
}

"pawfection::voluteer_view.dart::_VolunteerViewState" o-- "flutter::src::widgets::page_view.dart::PageController"
"flutter::src::widgets::framework.dart::State" <|-- "pawfection::voluteer_view.dart::_VolunteerViewState"

class "pawfection::volunteer::v_dashboard_screen.dart::VDashboardScreen" {
  +State<VDashboardScreen> createState()
}

"flutter::src::widgets::framework.dart::StatefulWidget" <|-- "pawfection::volunteer::v_dashboard_screen.dart::VDashboardScreen"

class "pawfection::volunteer::v_dashboard_screen.dart::_VDashboardScreenState" {
  -FirebaseAuth _auth
  +User currentUser
  +PetService petService
  +void initState()
  +Widget build()
}

"pawfection::volunteer::v_dashboard_screen.dart::_VDashboardScreenState" o-- "firebase_auth::firebase_auth.dart::FirebaseAuth"
"pawfection::volunteer::v_dashboard_screen.dart::_VDashboardScreenState" o-- "firebase_auth::firebase_auth.dart::User"
"pawfection::volunteer::v_dashboard_screen.dart::_VDashboardScreenState" o-- "pawfection::service::pet_service.dart::PetService"
"flutter::src::widgets::framework.dart::State" <|-- "pawfection::volunteer::v_dashboard_screen.dart::_VDashboardScreenState"

class "pawfection::volunteer::v_dashboard_screen.dart::TaskItem" {
  +Task task
  +PetService petService
  +State<TaskItem> createState()
}

"pawfection::volunteer::v_dashboard_screen.dart::TaskItem" o-- "pawfection::models::task.dart::Task"
"pawfection::volunteer::v_dashboard_screen.dart::TaskItem" o-- "pawfection::service::pet_service.dart::PetService"
"flutter::src::widgets::framework.dart::StatefulWidget" <|-- "pawfection::volunteer::v_dashboard_screen.dart::TaskItem"

class "pawfection::volunteer::v_dashboard_screen.dart::_TaskItemState" {
  -FirebaseAuth _auth
  +User currentUser
  +PetService petService
  +void initState()
  +Icon showCategoryIcon()
  +Widget build()
}

"pawfection::volunteer::v_dashboard_screen.dart::_TaskItemState" o-- "firebase_auth::firebase_auth.dart::FirebaseAuth"
"pawfection::volunteer::v_dashboard_screen.dart::_TaskItemState" o-- "firebase_auth::firebase_auth.dart::User"
"pawfection::volunteer::v_dashboard_screen.dart::_TaskItemState" o-- "pawfection::service::pet_service.dart::PetService"
"flutter::src::widgets::framework.dart::State" <|-- "pawfection::volunteer::v_dashboard_screen.dart::_TaskItemState"

class "pawfection::volunteer::v_dashboard_screen.dart::EmptyView" {
  +Widget build()
}

"flutter::src::widgets::framework.dart::StatelessWidget" <|-- "pawfection::volunteer::v_dashboard_screen.dart::EmptyView"

class "pawfection::volunteer::profile_picture_update_screen.dart::ProfilePictureUpdateScreen" {
  +String routetext
  +String petid
  +_ProfilePictureUpdateScreenState createState()
}

"flutter::src::widgets::framework.dart::StatefulWidget" <|-- "pawfection::volunteer::profile_picture_update_screen.dart::ProfilePictureUpdateScreen"

class "pawfection::volunteer::profile_picture_update_screen.dart::_ProfilePictureUpdateScreenState" {
  -ValueNotifier<File?> _croppedImageNotifier
  +UserRepository userRepository
  +PetRepository petRepository
  +StorageRepository storageRepository
  +UserService userService
  -FirebaseAuth _auth
  +User currentUser
  -dynamic _cropImage()
  +dynamic pickImage()
  +void initState()
  +void dispose()
  +Widget build()
}

"pawfection::volunteer::profile_picture_update_screen.dart::_ProfilePictureUpdateScreenState" o-- "flutter::src::foundation::change_notifier.dart::ValueNotifier<File>"
"pawfection::volunteer::profile_picture_update_screen.dart::_ProfilePictureUpdateScreenState" o-- "pawfection::repository::user_repository.dart::UserRepository"
"pawfection::volunteer::profile_picture_update_screen.dart::_ProfilePictureUpdateScreenState" o-- "pawfection::repository::pet_repository.dart::PetRepository"
"pawfection::volunteer::profile_picture_update_screen.dart::_ProfilePictureUpdateScreenState" o-- "pawfection::repository::storage_repository.dart::StorageRepository"
"pawfection::volunteer::profile_picture_update_screen.dart::_ProfilePictureUpdateScreenState" o-- "pawfection::service::user_service.dart::UserService"
"pawfection::volunteer::profile_picture_update_screen.dart::_ProfilePictureUpdateScreenState" o-- "firebase_auth::firebase_auth.dart::FirebaseAuth"
"pawfection::volunteer::profile_picture_update_screen.dart::_ProfilePictureUpdateScreenState" o-- "firebase_auth::firebase_auth.dart::User"
"flutter::src::widgets::framework.dart::State" <|-- "pawfection::volunteer::profile_picture_update_screen.dart::_ProfilePictureUpdateScreenState"

class "pawfection::volunteer::profile_update_screen.dart::VProfileUpdateScreen" {
  +String imagePath
  +User user
  +State<VProfileUpdateScreen> createState()
}

"pawfection::volunteer::profile_update_screen.dart::VProfileUpdateScreen" o-- "pawfection::models::user.dart::User"
"flutter::src::widgets::framework.dart::StatefulWidget" <|-- "pawfection::volunteer::profile_update_screen.dart::VProfileUpdateScreen"

class "pawfection::volunteer::profile_update_screen.dart::_VProfileUpdateScreenState" {
  +GlobalKey<FormState> formKey
  +UserRepository userRepository
  +StorageRepository storageRepository
  +UserService userService
  -dynamic _form
  +dynamic alertmessage
  +List<dynamic> preferences
  -void _showDialog()
  +void initState()
  +Widget build()
  -List<Widget> _buildForm()
  -List<Widget> _buildCupertinoForm()
}

"pawfection::volunteer::profile_update_screen.dart::_VProfileUpdateScreenState" o-- "flutter::src::widgets::framework.dart::GlobalKey<FormState>"
"pawfection::volunteer::profile_update_screen.dart::_VProfileUpdateScreenState" o-- "pawfection::repository::user_repository.dart::UserRepository"
"pawfection::volunteer::profile_update_screen.dart::_VProfileUpdateScreenState" o-- "pawfection::repository::storage_repository.dart::StorageRepository"
"pawfection::volunteer::profile_update_screen.dart::_VProfileUpdateScreenState" o-- "pawfection::service::user_service.dart::UserService"
"flutter::src::widgets::framework.dart::State" <|-- "pawfection::volunteer::profile_update_screen.dart::_VProfileUpdateScreenState"

class "pawfection::volunteer::update_availability_screen.dart::UpdateAvailability" {
  +User user
  +State<UpdateAvailability> createState()
}

"pawfection::volunteer::update_availability_screen.dart::UpdateAvailability" o-- "pawfection::models::user.dart::User"
"flutter::src::widgets::framework.dart::StatefulWidget" <|-- "pawfection::volunteer::update_availability_screen.dart::UpdateAvailability"

class "pawfection::volunteer::update_availability_screen.dart::_UpdateAvailabilityState" {
  +UserRepository userRepository
  +UserService userService
  -FirebaseAuth _auth
  +User currentUser
  +User? user
  +void initState()
  +Widget build()
}

"pawfection::volunteer::update_availability_screen.dart::_UpdateAvailabilityState" o-- "pawfection::repository::user_repository.dart::UserRepository"
"pawfection::volunteer::update_availability_screen.dart::_UpdateAvailabilityState" o-- "pawfection::service::user_service.dart::UserService"
"pawfection::volunteer::update_availability_screen.dart::_UpdateAvailabilityState" o-- "firebase_auth::firebase_auth.dart::FirebaseAuth"
"pawfection::volunteer::update_availability_screen.dart::_UpdateAvailabilityState" o-- "firebase_auth::firebase_auth.dart::User"
"pawfection::volunteer::update_availability_screen.dart::_UpdateAvailabilityState" o-- "pawfection::models::user.dart::User"
"flutter::src::widgets::framework.dart::State" <|-- "pawfection::volunteer::update_availability_screen.dart::_UpdateAvailabilityState"

class "pawfection::volunteer::v_profile_screen.dart::VProfileScreen" {
  +State<VProfileScreen> createState()
}

"flutter::src::widgets::framework.dart::StatefulWidget" <|-- "pawfection::volunteer::v_profile_screen.dart::VProfileScreen"

class "pawfection::volunteer::v_profile_screen.dart::_VProfileScreenState" {
  +UserRepository userRepository
  +UserService userService
  -FirebaseAuth _auth
  +User currentUser
  +void initState()
  +Widget build()
}

"pawfection::volunteer::v_profile_screen.dart::_VProfileScreenState" o-- "pawfection::repository::user_repository.dart::UserRepository"
"pawfection::volunteer::v_profile_screen.dart::_VProfileScreenState" o-- "pawfection::service::user_service.dart::UserService"
"pawfection::volunteer::v_profile_screen.dart::_VProfileScreenState" o-- "firebase_auth::firebase_auth.dart::FirebaseAuth"
"pawfection::volunteer::v_profile_screen.dart::_VProfileScreenState" o-- "firebase_auth::firebase_auth.dart::User"
"flutter::src::widgets::framework.dart::State" <|-- "pawfection::volunteer::v_profile_screen.dart::_VProfileScreenState"

class "pawfection::volunteer::widgets::profile_widget.dart::ProfileWidget" {
  +Image image
  +bool isEdit
  +void Function() onClicked
  +Widget build()
  +Widget buildImage()
  +Widget buildEditIcon()
  +Widget buildCircle()
}

"pawfection::volunteer::widgets::profile_widget.dart::ProfileWidget" o-- "flutter::src::widgets::image.dart::Image"
"pawfection::volunteer::widgets::profile_widget.dart::ProfileWidget" o-- "dart::ui::void Function()"
"flutter::src::widgets::framework.dart::StatelessWidget" <|-- "pawfection::volunteer::widgets::profile_widget.dart::ProfileWidget"

class "pawfection::volunteer::widgets::button_widget.dart::ButtonWidget" {
  +String text
  +void Function() onClicked
  +Widget build()
}

"pawfection::volunteer::widgets::button_widget.dart::ButtonWidget" o-- "dart::ui::void Function()"
"flutter::src::widgets::framework.dart::StatelessWidget" <|-- "pawfection::volunteer::widgets::button_widget.dart::ButtonWidget"

class "pawfection::volunteer::widgets::textfield_widget.dart::TextFieldWidget" {
  +int maxLines
  +String label
  +String text
  +void Function(String) onChanged
  +_TextFieldWidgetState createState()
}

"pawfection::volunteer::widgets::textfield_widget.dart::TextFieldWidget" o-- "flutter::src::foundation::basic_types.dart::void Function(String)"
"flutter::src::widgets::framework.dart::StatefulWidget" <|-- "pawfection::volunteer::widgets::textfield_widget.dart::TextFieldWidget"

class "pawfection::volunteer::widgets::textfield_widget.dart::_TextFieldWidgetState" {
  +TextEditingController controller
  +void initState()
  +void dispose()
  +Widget build()
}

"pawfection::volunteer::widgets::textfield_widget.dart::_TextFieldWidgetState" o-- "flutter::src::widgets::editable_text.dart::TextEditingController"
"flutter::src::widgets::framework.dart::State" <|-- "pawfection::volunteer::widgets::textfield_widget.dart::_TextFieldWidgetState"

class "pawfection::volunteer::widgets::numbers_widget.dart::NumbersWidget" {
  +Widget build()
  +Widget buildDivider()
  +Widget buildButton()
}

"flutter::src::widgets::framework.dart::StatelessWidget" <|-- "pawfection::volunteer::widgets::numbers_widget.dart::NumbersWidget"

class "pawfection::service::functions_service.dart::FunctionService" {
  +TaskService taskService
  +dynamic autoAssign()
}

"pawfection::service::functions_service.dart::FunctionService" o-- "pawfection::service::task_service.dart::TaskService"

class "pawfection::service::task_service.dart::TaskService" {
  +TaskRepository taskRepository
  +Task taskFromJson()
  +Map<String, dynamic> taskToJson()
  +Task taskFromJsonCloudFunction()
  +Task fromSnapshot()
  +List<Task> snapshotToTaskList()
  +List<Task> snapshotToTaskListModified()
  +void updateTask()
  +void deleteTask()
  +dynamic addTask()
  +dynamic findTaskByTaskID()
  +bool isAvailableWithinDeadline()
}

"pawfection::service::task_service.dart::TaskService" o-- "pawfection::repository::task_repository.dart::TaskRepository"

class "pawfection::service::pet_service.dart::PetService" {
  +PetRepository petRepository
  +Pet petFromJson()
  +Map<String, dynamic> petToJson()
  +Pet fromSnapshot()
  +List<Pet> snapshotToPetList()
  +List<Pet> snapshotToPetListModified()
  +void updatePet()
  +void deletePet()
  +dynamic addPet()
  +dynamic findPetByPetID()
  +dynamic getPetList()
  +dynamic findPetByPetname()
}

"pawfection::service::pet_service.dart::PetService" o-- "pawfection::repository::pet_repository.dart::PetRepository"

class "pawfection::service::user_service.dart::UserService" {
  +UserRepository userRepository
  +User userFromJson()
  +Map<String, dynamic> userToJson()
  +User fromSnapshot()
  +List<User> snapshotToUserList()
  +List<User> snapshotToUserListModified()
  +void updateUser()
  +void updateUserUid()
  +void deleteUser()
  +dynamic addUser()
  +void addUserWithId()
  +dynamic getUserList()
  +dynamic findUserByUUID()
  +dynamic findUserByUUIDs()
  +dynamic findUserByUsername()
  +dynamic currentUser()
}

"pawfection::service::user_service.dart::UserService" o-- "pawfection::repository::user_repository.dart::UserRepository"

class "pawfection::splash_screen.dart::SplashScreen" {
  +_SplashScreenState createState()
}

"flutter::src::widgets::framework.dart::StatefulWidget" <|-- "pawfection::splash_screen.dart::SplashScreen"

class "pawfection::splash_screen.dart::_SplashScreenState" {
  +void initState()
  +Widget build()
}

"flutter::src::widgets::framework.dart::State" <|-- "pawfection::splash_screen.dart::_SplashScreenState"


@enduml